<?xml version="1.0" encoding="utf-8"?>
<!-- Generator: Adobe Illustrator 23.1.0, SVG Export Plug-In . SVG Version: 6.00 Build 0)  -->
<svg version="1.1" xmlns="http://www.w3.org/2000/svg" xmlns:xlink="http://www.w3.org/1999/xlink" x="0px" y="0px"
	 viewBox="0 0 600 125.61" style="enable-background:new 0 0 600 125.61;" xml:space="preserve">
<style type="text/css">
	.st0{display:none;}
	.st1{display:inline;fill:#707071;stroke:#FFFFFF;stroke-miterlimit:10;}
	.st2{fill:#DCDBDB;}
	.st3{fill:none;stroke:#FFFFFF;stroke-width:8;stroke-miterlimit:10;}
	.st4{fill:#707071;stroke:#FFFFFF;stroke-width:8;stroke-miterlimit:10;}
</style>
<g id="Layer_3" class="st0">
	<rect x="0" y="-164.94" class="st1" width="600" height="600"/>
</g>
<g id="Layer_1">
	<g>
		<path class="st2" d="M137.54,53.84c-2.57,10.27-4.89,19.45-6.6,28.5h-0.24c-1.22-8.68-3.42-18.47-5.75-28.25l-10.03-41.83h-11.13
			L92.78,53.84c-2.81,10.64-5.38,20.42-6.73,28.62h-0.24c-1.47-7.95-3.67-18.22-6.11-28.5l-9.78-41.7H58.66l20.91,82.43H90.7
			l11.74-42.93c3.06-10.64,4.89-18.71,6.36-26.91h0.24c1.1,8.32,2.81,16.39,5.38,26.91l10.4,42.93h11.13l23.36-82.43h-10.88
			L137.54,53.84z"/>
		<path class="st2" d="M202.97,10.92c-22.01,0-38.28,17.12-38.28,43.29c0,24.95,15.29,41.83,37.06,41.83
			c21.04,0,38.28-15.04,38.28-43.42C240.03,28.16,225.47,10.92,202.97,10.92z M202.36,87.35c-16.75,0-26.29-15.78-26.29-33.39
			c0-18.1,8.81-34.37,26.42-34.37c17.73,0,26.29,17.12,26.29,33.51C228.78,71.82,219.24,87.35,202.36,87.35z"/>
		<rect x="249.93" y="57.64" class="st2" width="30.21" height="7.95"/>
		<path class="st2" d="M317.81,47.97c-11.37-4.4-16.39-8.19-16.39-15.9c0-5.63,4.28-12.35,15.53-12.35c7.46,0,12.96,2.45,15.65,3.91
			l2.93-8.68c-3.67-2.08-9.78-4.04-18.22-4.04c-16.02,0-26.66,9.54-26.66,22.38c0,11.62,8.32,18.59,21.77,23.36
			c11.13,4.28,15.53,8.68,15.53,16.39c0,8.32-6.36,14.06-17.24,14.06c-7.34,0-14.31-2.45-19.08-5.38l-2.69,8.93
			c4.4,2.94,13.09,5.26,21.03,5.26c19.45,0,28.86-11.01,28.86-23.73C338.84,60.08,331.75,53.36,317.81,47.97z"/>
		<polygon class="st2" points="403.91,46.75 364.04,46.75 364.04,12.26 353.4,12.26 353.4,94.69 364.04,94.69 364.04,56.05 
			403.91,56.05 403.91,94.69 414.67,94.69 414.67,12.26 403.91,12.26 		"/>
		<path class="st2" d="M466.52,10.92c-22.01,0-38.28,17.12-38.28,43.29c0,24.95,15.29,41.83,37.06,41.83
			c21.04,0,38.28-15.04,38.28-43.42C503.58,28.16,489.02,10.92,466.52,10.92z M465.91,87.35c-16.75,0-26.29-15.78-26.29-33.39
			c0-18.1,8.81-34.37,26.42-34.37c17.73,0,26.29,17.12,26.29,33.51C492.33,71.82,482.79,87.35,465.91,87.35z"/>
		<path class="st2" d="M560.94,18.5c-4.89-4.4-12.6-6.85-23.11-6.85c-8.56,0-15.29,0.73-20.42,1.59v81.45h10.64V61.67
			c2.45,0.61,5.38,0.73,8.56,0.73c10.4,0,19.57-3.06,25.19-9.05c4.16-4.28,6.36-10.15,6.36-17.61
			C568.15,28.41,565.46,22.41,560.94,18.5z M536.84,53.84c-3.55,0-6.48-0.24-8.81-0.86V20.95c1.83-0.49,5.38-0.86,10.03-0.86
			c11.74,0,19.45,5.26,19.45,16.14C557.51,47.61,549.68,53.84,536.84,53.84z"/>
	</g>
</g>
<g id="Layer_2">
	<g>
		
			<rect x="106.1" y="46.2" transform="matrix(0.9899 -0.1415 0.1415 0.9899 -5.0775 46.7272)" class="st3" width="439.87" height="25.73"/>
		<path class="st3" d="M560.05,25.62c1.01,7.03-3.88,13.55-10.92,14.56c-1.09-7.62-2.23-15.62-3.64-25.47
			C552.53,13.7,559.04,18.58,560.05,25.62z"/>
		<polygon class="st4" points="65.59,96.29 101.79,102.55 98.59,80.15 		"/>
	</g>
</g>
</svg>
